<svg xmlns="http://www.w3.org/2000/svg" xmlns:xlink="http://www.w3.org/1999/xlink" version="1.1" x="0px" y="0px" viewBox="0 0 100 125" enable-background="new 0 0 100 100" xml:space="preserve">
	<g>
		<path fill="#be0000" d="M64.3,87.4l19.8-19.8l1.1,1.7c1.4,2.1,0.9,5-1.3,6.4l-31.2,21c-2.1,1.4-5,0.9-6.4-1.3L8.9,39.8c-0.3-0.5-0.5-1-0.7-1.5   l49.2,49.2C59.3,89.3,62.4,89.3,64.3,87.4z"/>
		<path fill="#be0000" d="M39.5,2.6H12.9c-2.6,0-4.6,2.1-4.6,4.6v26.6c0,1.2,0.5,2.4,1.4,3.3l47.5,47.5c1.8,1.8,4.8,1.8,6.6,0L90.4,58   c1.8-1.8,1.8-4.8,0-6.6L42.8,3.9C42,3,40.8,2.6,39.5,2.6z M17.8,17.5c-0.5-3.2,2.2-5.9,5.4-5.4c2,0.3,3.6,1.9,3.9,3.9   c0.5,3.2-2.2,5.9-5.4,5.4C19.7,21.2,18.1,19.5,17.8,17.5z"/>
	</g>
	<!-- https://thenounproject.com/term/tags/464493 "tags" by Guilhem from the Noun Project -->
</svg>